<svg height="145.9" width="162.6" viewBox="0 0 162.63359 145.9232">
    <g color="#000">
        <path d="M148 111.7c4.976-5.58 4.014-18-7.768-21.43-11.43-3.331-23.78-3.472-23.78-3.472-3.168 17.84 23.85 34.04 31.55 24.9z" stroke="#000" stroke-width="3" fill="#fff"/>
        <path d="M159.2 52.04c5.223 12.99-.272 31.26-15.38 34.46-14.65 3.104-29.52.619-29.52.619 1.245-30.82 32.35-60.06 44.9-35.08zM14.61 111.7c-4.976-5.58-4.014-18 7.768-21.43 11.43-3.331 23.78-3.472 23.78-3.472 3.168 17.84-23.85 34.04-31.55 24.9z" stroke="#000" stroke-width="3" fill="#fff"/>
        <path d="M3.433 52.04c-5.223 12.99.272 31.26 15.38 34.46 14.65 3.104 29.52.619 29.52.619-1.245-30.82-32.35-60.06-44.9-35.08z" stroke="#000" stroke-width="3" fill="#fff"/>
        <path stroke="#000" stroke-width="3.148" fill="#e9ddaf" transform="matrix(1.165 0 0 .7797 -57.97 -300.7)" d="M148.7 437.5H91.06l14.41-24.96 14.41-24.96 14.41 24.96z"/>
        <path d="M68.16 17.25c8.326-2.324 17.25-2.784 27.21 0L81.77 1.48z" stroke="#000" stroke-width="3" fill="red"/>
        <path d="M67.05 41.93c10.95-8.918 20.5-6.5 29.54 0v87.38H67.05z" stroke="#000" stroke-width="3" fill="#fc0"/>
        <path d="M47.01 41.93c7.498-8.918 14.03-6.5 20.22 0v87.38H47.01zM96.41 41.93c7.498-8.918 14.03-6.5 20.22 0v87.38H96.41z" stroke="#000" stroke-width="3" fill="#f60"/>
        <ellipse rx="20.44" ry="20.7" stroke="#000" cy="71" cx="60.79" stroke-width="3" fill="#fff"/>
        <ellipse rx="9.527" ry="9.646" cy="71" cx="60.79"/>
        <ellipse rx="20.44" ry="20.7" stroke="#000" cy="71" cx="101.3" stroke-width="3" fill="#fff"/>
        <ellipse rx="9.527" ry="9.646" cy="71" cx="101.3"/>
        <ellipse rx="5.347" ry="5.414" cy="66.8" cx="67.13" fill="#fff"/>
        <ellipse rx="5.347" ry="5.414" cy="66.8" cx="107.1" fill="#fff"/>
        <path d="M64.31 144.4l-17.37-12.97 19.37-12.73 30.82-.08 19.21 12.65L99.05 144z" stroke="#000" stroke-width="3" fill="#e9ddaf"/>
        <ellipse rx="10.24" ry="2.497" stroke="#000" cy="131.5" cx="81.85" stroke-width="3" fill="red"/>
    </g>
</svg>
